<?xml version="1.0" encoding="utf-8" standalone="no"?>
<!DOCTYPE svg PUBLIC "-//W3C//DTD SVG 1.1//EN"
  "http://www.w3.org/Graphics/SVG/1.1/DTD/svg11.dtd">
<!-- Created with matplotlib (http://matplotlib.sourceforge.net/) -->
<svg height="432pt" version="1.1" viewBox="0 0 864 432" width="864pt" xmlns="http://www.w3.org/2000/svg" xmlns:xlink="http://www.w3.org/1999/xlink">
 <defs>
  <style type="text/css">
*{stroke-linecap:square;stroke-linejoin:round;}
  </style>
 </defs>
 <g id="figure_1">
  <g id="patch_1">
   <path d="
M0 432
L864 432
L864 0
L0 0
z
" style="fill:#ffffff;"/>
  </g>
  <g id="axes_1">
   <g id="patch_2">
    <path d="
M108 388.8
L777.6 388.8
L777.6 43.2
L108 43.2
z
" style="fill:#ffffff;"/>
   </g>
   <g id="line2d_1">
    <defs>
     <clipPath id="pad36b945f0">
      <rect height="345.6" width="669.6" x="108.0" y="43.2"/>
     </clipPath>
    </defs>
    <path clip-path="url(#pad36b945f0)" d="
M108 360.443
L108.737 240.686
L109.72 356.484
L110.948 263.884
L111.931 228.853
L112.176 388.8
L112.668 189.278
L114.142 388.8
L115.124 276.104
L115.615 358.129
L116.598 388.8
L117.089 201.989
L118.809 216
L119.546 382.71
L120.283 173.361
L120.774 240.155
L121.511 388.8
L122.003 277.178
L124.214 339.429
L125.196 357.061
L126.425 345.145
L126.916 322.125
L127.162 388.8
L127.898 287.649
L128.144 383.583
L129.372 314.743
L130.109 247.015
L130.355 339.01
L130.846 160.932
L131.338 324.366
L131.583 247.587
L131.829 290.835
L133.303 323.701
L134.04 388.8
L134.531 218.658
L135.023 388.8
L135.76 373.855
L136.988 243.284
L137.971 213.566
L138.216 282.462
L138.708 368.57
L138.953 307.242
L139.199 294.71
L139.69 311.386
L141.41 325.964
L141.655 273.093
L142.147 388.8
L142.884 275.951
L143.375 335.788
L143.866 308.115
L145.095 376.402
L145.34 297.712
L146.253 346.265
L146.744 342.202
L147.481 380.472
L148.218 305.018
L148.955 180.136
L149.201 280.376
L149.692 238.154
L150.183 333.333
L150.92 193.177
L151.166 388.8
L152.394 291.944
L152.64 388.8
L154.114 293.714
L154.36 340.416
L154.851 283.973
L156.079 348.614
L156.571 355.489
L157.062 339.429
L158.29 275.058
L159.027 388.8
L159.273 314.299
L159.764 388.8
L160.255 246.171
L160.992 300.749
L161.729 342.333
L161.975 280.8
L162.958 198.629
L163.695 374.094
L164.186 261.474
L164.677 388.8
L165.414 206.441
L165.906 288.815
L166.397 305.439
L166.643 309.554
L167.38 255.411
L168.117 308.16
L168.854 342.911
L170.082 284.316
L170.328 283.928
L170.819 388.8
L171.802 266.464
L172.784 130.062
L174.504 372.971
L174.995 240.915
L176.223 339.865
L176.469 202.409
L176.96 104.568
L177.206 351.438
L177.943 165.382
L178.68 290.835
L179.171 327.651
L179.908 217.073
L180.4 299.034
L181.137 248.342
L181.874 325.137
L182.365 207.076
L183.348 301.657
L183.593 309.237
L183.839 196.314
L184.576 221.959
L185.067 224.089
L185.313 377.606
L185.804 334.588
L186.295 340.009
L186.787 159.632
L187.032 159.524
L187.524 295.543
L188.015 195.907
L188.506 367.401
L188.752 335.444
L189.489 267.27
L189.735 91.4536
L190.226 202.931
L190.717 184.361
L190.963 188.935
L191.209 325.241
L192.437 157.436
L193.174 164.463
L193.911 326.83
L194.157 334.94
L194.402 224.229
L195.385 292.99
L195.876 247.876
L196.368 381.674
L197.105 280.072
L198.087 334.517
L198.578 253.565
L199.315 371.375
L199.561 382.248
L200.789 150.455
L201.772 320.024
L202.509 347.534
L203 198.72
L203.737 360.199
L203.983 311.137
L204.229 230.011
L204.72 201.6
L205.211 374.836
L205.948 252.563
L206.194 283.235
L206.685 262.334
L207.422 324.336
L208.159 285.726
L208.405 279.842
L208.651 258.692
L209.388 255.633
L209.633 299.421
L210.37 295.559
L211.844 290.057
L212.335 353.171
L212.581 256.57
L212.827 329.214
L213.072 224.786
L213.809 330.251
L214.792 264.483
L215.529 280.072
L216.02 359.543
L216.512 382.79
L217.494 308.661
L218.231 382.459
L218.477 353.837
L219.46 187.2
L221.671 372.244
L221.916 351.235
L222.899 208.242
L223.145 208.242
L223.636 286.744
L224.127 189.12
L224.373 388.8
L225.601 242.065
L226.584 285.22
L228.303 388.8
L229.04 248.81
L230.023 361.456
L230.514 242.514
L231.006 328.696
L232.234 367.2
L232.48 383.88
L234.691 326.769
L235.919 228.385
L236.902 298.643
L237.393 283.973
L238.375 193.177
L239.358 388.8
L240.832 375.379
L242.06 358.08
L242.552 382.587
L244.026 291.6
L245.991 211.65
L246.482 328.696
L246.728 182.911
L247.465 348.73
L247.711 333.008
L248.202 140.064
L248.448 297.853
L248.693 204.48
L249.676 219.369
L249.922 317.908
L250.167 339.698
L250.658 345.935
L252.132 343.66
L252.624 349.888
L253.115 254.721
L253.852 383.226
L254.343 277.652
L254.835 365.869
L255.326 358.786
L255.817 346.909
L256.8 334.375
L257.046 356.837
L257.783 334.03
L258.52 346.436
L258.765 326.045
L259.994 97.5525
L260.731 280.213
L261.468 161.316
L262.942 298.741
L264.17 275.489
L264.661 228.056
L265.152 313.54
L266.626 348.141
L267.118 267.537
L267.363 157.113
L268.592 364.758
L268.837 345.6
L269.083 285.855
L270.066 353.048
L270.311 305.523
L271.048 264.505
L272.277 361.957
L273.259 381.922
L274.242 241.108
L274.733 279.842
L275.716 303.542
L275.962 236.976
L276.944 307.935
L277.19 365.236
L277.927 225.6
L279.401 213.471
L279.646 256.8
L279.892 255.327
L280.629 361.426
L280.875 190.588
L281.612 276.845
L282.594 364.5
L282.84 296.64
L283.331 388.8
L283.577 308.865
L284.314 331.989
L285.051 277.316
L286.034 339.624
L286.279 155.811
L286.525 321.6
L287.262 351.346
L287.999 344.206
L288.245 295.509
L289.964 383.661
L290.21 182.728
L290.455 376.059
L290.947 256.241
L291.929 198.124
L292.175 388.8
L292.421 142.51
L293.403 227.03
L293.649 335.921
L294.14 388.8
L294.632 381.447
L295.123 315.734
L295.369 357.262
L296.106 362.3
L296.351 333.058
L296.597 380.916
L296.843 280.905
L297.334 337.6
L297.58 298.643
L298.071 322.256
L298.562 227.744
L298.808 263.127
L299.299 184.504
L300.036 322.178
L300.282 135.434
L300.528 311.822
L300.773 115.277
L301.51 367.855
L302.002 308.01
L302.738 305.322
L302.984 166.345
L303.23 318.662
L303.475 373.989
L303.721 388.8
L304.212 348.141
L304.704 363.63
L305.441 368.471
L305.686 321.91
L306.178 346.159
L306.423 307.879
L306.669 247.294
L307.16 297.282
L307.652 304.787
L307.897 324.997
L308.143 286.707
L308.88 255.735
L309.126 207.502
L309.371 203.754
L309.617 206.905
L310.108 248.692
L310.354 296.64
L310.6 385.615
L310.845 309.237
L311.091 274.334
L311.337 189.641
L311.828 367.96
L312.319 353.048
L312.811 388.8
L313.302 222.912
L313.548 302.038
L313.793 204.903
L314.039 197.777
L314.285 325.605
L314.53 388.8
L314.776 337.521
L315.022 328.404
L315.513 209.754
L315.758 388.8
L316.004 353.58
L316.25 290.88
L316.741 203.2
L316.987 304.163
L317.724 366.413
L317.969 329.554
L318.215 318.2
L318.461 188.716
L318.706 209.268
L319.689 370.119
L319.935 388.8
L320.18 333.504
L320.426 370.629
L320.917 312
L321.163 369.863
L321.409 302.784
L322.146 307.082
L322.391 363.551
L322.637 370.119
L323.374 356.898
L324.357 388.8
L325.094 251.035
L325.339 343.426
L325.585 299.476
L325.831 373.215
L326.076 207.587
L326.322 367.423
L326.568 301.857
L326.813 293.242
L327.55 388.8
L327.796 304.507
L328.042 308.16
L328.778 322.414
L330.007 371.838
L330.252 315.528
L331.235 163.578
L332.218 329.835
L332.709 259.2
L333.2 225.425
L334.183 324
L334.429 382.089
L334.674 300.749
L335.411 388.8
L335.657 273.6
L335.903 324.668
L336.394 195.358
L338.359 358.156
L338.605 296.64
L338.851 187.63
L339.096 335.444
L339.342 349.141
L339.588 303.652
L340.079 361.202
L340.325 369.398
L340.57 349.675
L341.307 388.8
L341.798 388.8
L342.29 279.148
L342.535 371.733
L342.781 348.923
L343.027 295.732
L343.272 383.642
L344.009 167.31
L344.255 357.785
L344.501 322.747
L344.746 388.8
L345.238 256.145
L345.483 325.175
L347.449 235.2
L347.694 238.335
L347.94 388.8
L348.431 205.701
L351.379 269.284
L351.625 259.384
L352.362 365.745
L353.345 282.462
L353.836 308.272
L355.801 242.977
L356.047 375.313
L356.538 383.134
L357.029 223.182
L358.749 309.889
L358.995 225.29
L359.486 376.674
L359.977 363.041
L360.714 227.52
L361.697 369.33
L361.943 134.89
L362.188 309.6
L363.417 313.786
L363.662 376.951
L376.928 281.081
L377.174 331.286
L378.402 265.003
L378.648 321.966
L379.63 388.8
L380.613 189.278
L382.087 247.015
L383.069 332.662
L383.806 376.92
L384.298 351.653
L385.28 276.356
L385.526 209.213
L386.509 356.96
L387.246 230.164
L387.983 290.714
L389.702 355.886
L390.685 345.957
L390.931 388.8
L391.668 180.213
L392.159 379.258
L392.405 187.2
L392.65 378.783
L393.142 208.647
L393.878 267.537
L395.598 388.8
L395.844 388.8
L396.826 319.245
L397.072 337.06
L397.563 158.4
L399.774 366.717
L400.511 303.223
L402.477 234.054
L403.459 319.91
L403.705 246.931
L405.179 283.987
L406.898 388.8
L407.144 357.021
L408.864 266.464
L409.601 362.519
L411.32 271.149
L411.812 311.622
L412.057 379.48
L413.04 338.865
L413.286 361.426
L414.023 285.002
L414.514 297.562
L415.251 364.114
L416.479 340.507
L416.725 353.171
L416.971 269.025
L417.462 335.885
L419.182 332.086
L419.427 388.8
L420.164 377.469
L420.41 283.316
L421.884 319.91
L423.849 330.797
L424.095 372.211
L424.586 384.462
L424.832 276.714
L425.814 334.283
L426.306 374.187
L428.271 319.158
L428.762 381.368
L429.254 315.072
L429.991 287.838
L431.219 283.738
L431.956 266.979
L432.693 277.49
L433.184 249.115
L433.675 326.078
L434.167 363.114
L434.658 293.929
L435.886 305.018
L436.623 364.441
L437.36 204.055
L437.606 379.378
L438.097 231.973
L438.834 310.918
L439.326 218.133
L440.063 272.678
L441.045 231.398
L442.028 246.357
L442.519 281.081
L443.256 314.441
L443.993 219.625
L444.485 380.901
L445.467 245.03
L445.713 342.179
L445.958 215.496
L446.45 337.6
L446.941 367.934
L447.432 208.216
L447.678 373.774
L448.415 283.474
L449.152 388.8
L449.643 292.181
L450.135 385.501
L450.872 278.547
L451.117 125.486
L451.363 263.602
L451.854 388.8
L452.1 382.37
L452.591 286.147
L452.837 269.169
L453.82 362.361
L454.311 303.467
L455.294 145.664
L455.785 222.562
L456.276 331.439
L456.522 238.804
L456.768 359.387
L457.505 239.62
L457.996 281.49
L458.242 384.507
L458.487 268.188
L459.224 233.583
L459.47 172.961
L460.207 274.016
L460.452 256.724
L460.698 357.279
L460.944 328.595
L461.189 267.149
L461.681 323.791
L462.172 229.292
L462.418 338.07
L462.663 230.164
L462.909 313.941
L463.646 251.186
L464.137 279.086
L464.629 192.788
L465.12 222.912
L465.366 327.043
L465.611 202.827
L465.857 388.8
L466.594 388.8
L467.085 218.796
L467.331 198.367
L468.068 374.765
L469.051 325.322
L469.296 246.857
L469.788 363.464
L470.279 175.409
L470.77 227.955
L471.262 302.888
L471.998 214.129
L472.244 291.689
L472.49 219.677
L472.735 238.539
L473.227 196.8
L473.964 377.01
L474.209 304.822
L474.701 379.25
L474.946 388.8
L475.683 308.838
L475.929 344.775
L476.42 207.421
L476.666 187.646
L476.912 283.565
L477.403 373.675
L477.894 328.896
L478.14 246.792
L478.386 303.371
L479.368 203.831
L479.86 293.774
L480.105 165.657
L480.597 348.141
L481.088 324.265
L481.334 227.352
L481.825 355.355
L482.316 328.096
L482.808 207.571
L483.299 269.13
L483.79 266.464
L484.527 220.215
L485.264 264.929
L485.51 330.048
L485.755 339.891
L486.001 334.035
L486.492 254.792
L486.738 265.92
L487.721 269.225
L488.212 311.714
L488.703 327.208
L489.195 358.437
L489.44 242.748
L489.686 236.093
L490.177 341.575
L490.423 352.421
L490.669 297.318
L491.16 335.115
L491.406 241.224
L492.388 297.221
L492.634 191.808
L492.88 378.522
L493.371 207.214
L493.617 220.709
L494.354 326.616
L495.091 300.66
L495.336 259.704
L495.582 337.454
L495.828 155.012
L496.073 304.23
L496.81 300.653
L497.056 227.903
L497.547 351.936
L497.793 283.2
L498.038 335.782
L498.284 359.799
L498.775 201.067
L499.021 332.688
L499.267 329.167
L499.758 372.862
L500.004 235.972
L500.741 388.8
L500.986 388.8
L501.478 244.13
L501.969 171.653
L502.952 338.531
L503.197 195.055
L503.689 345.014
L504.18 385.318
L505.163 328.869
L505.654 240.155
L506.391 311.822
L507.128 284.249
L507.865 383.983
L508.356 270.956
L508.602 326.503
L508.848 298.229
L509.83 383.357
L510.567 380.99
L510.813 311.694
L511.304 307.983
L512.041 331.597
L512.532 202.708
L513.515 272.387
L513.761 200.462
L514.498 299.2
L514.743 227.43
L514.989 361.516
L515.235 290.057
L515.48 338.378
L515.726 303.441
L515.972 226.897
L516.709 226.165
L516.954 195.671
L517.937 186.805
L518.428 330.797
L518.674 268.866
L519.165 342.955
L519.657 270.87
L520.148 322.089
L520.639 252.737
L520.885 200.291
L521.376 205.42
L521.622 340.464
L521.868 227.798
L522.359 352.737
L522.605 173.239
L522.85 353.753
L523.342 312.213
L523.587 313.052
L524.815 279.538
L525.061 223.14
L526.781 367.802
L527.026 161.111
L527.518 331.073
L527.763 233.28
L528.5 273.317
L528.746 388.8
L529.237 360.731
L529.483 254.4
L530.711 355.717
L531.448 159.989
L531.694 293.462
L531.94 232.941
L532.677 322.971
L533.414 361.252
L534.642 354.124
L536.607 172.8
L537.098 302.971
L538.327 304.379
L538.572 214.269
L541.766 301.136
L543.486 213.813
L545.697 321.239
L545.942 196.466
L547.662 247.488
L548.153 277.867
L550.118 174.34
L550.61 283.617
L552.329 228.218
L554.295 321.779
L555.523 239.351
L556.26 388.8
L556.997 331.371
L557.734 309.352
L559.699 276.449
L560.682 192.751
L561.173 272.632
L563.875 162.5
L564.612 262.523
L568.052 229.162
L568.543 247.229
L569.28 204.48
L570.017 137.157
L571 332.086
L572.719 331.878
L574.439 382.573
L575.667 330.649
L577.387 345.6
L577.632 244.946
L577.878 237.993
L578.615 330.898
L580.58 388.8
L582.054 223.14
L584.757 111.668
L586.231 277.883
L586.722 317.327
L588.687 309.373
L589.178 174.857
L589.424 335.733
L592.863 296.871
L594.829 206.459
L596.548 227.57
L597.531 329.66
L599.005 311.111
L599.742 371.364
L600.479 326.616
L603.181 281.578
L603.672 335.771
L604.409 284.784
L604.655 378.926
L607.603 307.045
L608.094 250.152
L608.586 298.594
L609.077 188.755
L609.568 244.13
L610.06 341.072
L610.797 126.239
L612.516 151.817
L612.762 214.443
L613.008 236.963
L616.201 328.419
L617.675 291.52
L617.921 198.043
L618.658 376.588
L619.149 340.698
L620.377 336.478
L620.869 362.995
L621.36 117.488
L622.834 253.519
L623.817 259.636
L624.799 382.205
L626.028 209.995
L627.502 365.369
L627.747 222.317
L628.975 335.857
L629.467 274.849
L630.204 319.959
L633.152 293.132
L633.643 241.469
L634.871 162.747
L635.117 73.2973
L635.363 228.442
L635.854 346.438
L636.591 362.496
L639.048 370.119
L639.293 201.543
L640.03 355.886
L640.276 140.064
L640.522 322.971
L641.013 306.322
L641.504 327.248
L642.241 296.277
L643.224 292.673
L644.206 251.805
L646.172 255.91
L647.154 333.642
L647.891 227.577
L649.12 194.007
L649.365 313.229
L649.611 318.25
L651.331 370.333
L652.559 223.737
L653.542 290.505
L655.507 304.463
L656.244 336.803
L656.735 366.554
L658.946 299.971
L659.437 332.557
L660.666 101.797
L661.157 342.576
L662.631 151.736
L665.088 312.641
L668.527 277.145
L669.018 223.119
L671.72 367.791
L672.703 364.547
L672.949 235.433
L673.931 251.91
L676.142 319.584
L676.879 203.462
L678.353 322.263
L680.318 322.129
L681.301 223.01
L683.512 357.839
L684.495 357.117
L685.969 246.427
L686.214 335.535
L686.46 298.257
L691.128 237.993
L691.373 276.524
L691.619 219.456
L692.11 200.983
L692.602 312.572
L695.058 203.104
L696.532 311.61
L697.269 292.682
L699.48 291.247
L701.691 231.206
L703.656 251.07
L703.902 242.715
L706.358 336.117
L708.815 263.872
L710.043 303.848
L723.063 329.835
L724.783 222.646
L725.029 313.952
L725.274 237.156
L725.766 342.819
L726.257 320.879
L726.748 262.343
L727.24 245.206
L727.977 297.744
L728.222 271.647
L728.468 286.82
L730.188 264.835
L730.679 282.197
L731.662 251.735
L732.398 288.849
L732.644 213.349
L733.872 298.42
L734.609 285.636
L735.838 310.304
L738.294 313.244
L739.277 179.427
L740.26 214.142
L740.751 343.811
L740.997 240.264
L741.979 247.229
L742.225 197.231
L743.945 343.752
L745.173 180.663
L746.155 331.428
L746.401 332.176
L748.121 301.895
L748.612 341.194
L749.103 312.327
L749.84 261.585
L750.332 309.719
L750.577 262.306
L752.051 239.04
L752.297 313.132
L755.245 351.078
L758.93 320.533
L759.175 322.267
L759.667 246.954
L759.912 230.106
L760.158 328.471
L761.386 303.124
L763.597 357.19
L764.334 241.976
L765.563 314.024
L766.545 247.572
L767.282 343.759
L768.756 270.161
L770.476 251.172
L770.967 303.165
L772.441 352.145
L772.687 252.244
L772.932 324.554
L773.178 284.748
L773.424 355.219
L774.652 388.8
L775.143 222.023
L775.389 296.11
L775.88 307.835
L776.126 286.189
L777.6 249.262
L777.6 249.262" style="fill:none;stroke:#0000ff;"/>
   </g>
   <g id="matplotlib.axis_1">
    <g id="xtick_1">
     <g id="line2d_2">
      <defs>
       <path d="
M0 0
L0 -4" id="mc5237446e2"/>
      </defs>
      <g>
       <use style="fill:none;stroke:#000000;stroke-linecap:butt;stroke-width:0.5;" x="146.077358491" xlink:href="#mc5237446e2" y="388.8"/>
      </g>
     </g>
     <g id="line2d_3">
      <defs>
       <path d="
M0 0
L0 4" id="m0a1661ac28"/>
      </defs>
      <g>
       <use style="fill:none;stroke:#000000;stroke-linecap:butt;stroke-width:0.5;" x="146.077358491" xlink:href="#m0a1661ac28" y="43.2"/>
      </g>
     </g>
     <g id="text_1">
      <!-- 1962 -->
      <defs>
       <path d="
M19.1875 -8.29688
L53.6094 -8.29688
L53.6094 0
L7.32812 0
L7.32812 -8.29688
Q12.9375 -14.1094 22.625 -23.8906
Q32.3281 -33.6875 34.8125 -36.5312
Q39.5469 -41.8438 41.4219 -45.5312
Q43.3125 -49.2188 43.3125 -52.7812
Q43.3125 -58.5938 39.2344 -62.25
Q35.1562 -65.9219 28.6094 -65.9219
Q23.9688 -65.9219 18.8125 -64.3125
Q13.6719 -62.7031 7.8125 -59.4219
L7.8125 -69.3906
Q13.7656 -71.7812 18.9375 -73
Q24.125 -74.2188 28.4219 -74.2188
Q39.75 -74.2188 46.4844 -68.5469
Q53.2188 -62.8906 53.2188 -53.4219
Q53.2188 -48.9219 51.5312 -44.8906
Q49.8594 -40.875 45.4062 -35.4062
Q44.1875 -33.9844 37.6406 -27.2188
Q31.1094 -20.4531 19.1875 -8.29688" id="BitstreamVeraSans-Roman-32"/>
       <path d="
M10.9844 -1.51562
L10.9844 -10.5
Q14.7031 -8.73438 18.5 -7.8125
Q22.3125 -6.89062 25.9844 -6.89062
Q35.75 -6.89062 40.8906 -13.4531
Q46.0469 -20.0156 46.7812 -33.4062
Q43.9531 -29.2031 39.5938 -26.9531
Q35.25 -24.7031 29.9844 -24.7031
Q19.0469 -24.7031 12.6719 -31.3125
Q6.29688 -37.9375 6.29688 -49.4219
Q6.29688 -60.6406 12.9375 -67.4219
Q19.5781 -74.2188 30.6094 -74.2188
Q43.2656 -74.2188 49.9219 -64.5156
Q56.5938 -54.8281 56.5938 -36.375
Q56.5938 -19.1406 48.4062 -8.85938
Q40.2344 1.42188 26.4219 1.42188
Q22.7031 1.42188 18.8906 0.6875
Q15.0938 -0.046875 10.9844 -1.51562
M30.6094 -32.4219
Q37.25 -32.4219 41.125 -36.9531
Q45.0156 -41.5 45.0156 -49.4219
Q45.0156 -57.2812 41.125 -61.8438
Q37.25 -66.4062 30.6094 -66.4062
Q23.9688 -66.4062 20.0938 -61.8438
Q16.2188 -57.2812 16.2188 -49.4219
Q16.2188 -41.5 20.0938 -36.9531
Q23.9688 -32.4219 30.6094 -32.4219" id="BitstreamVeraSans-Roman-39"/>
       <path d="
M12.4062 -8.29688
L28.5156 -8.29688
L28.5156 -63.9219
L10.9844 -60.4062
L10.9844 -69.3906
L28.4219 -72.9062
L38.2812 -72.9062
L38.2812 -8.29688
L54.3906 -8.29688
L54.3906 0
L12.4062 0
z
" id="BitstreamVeraSans-Roman-31"/>
       <path d="
M33.0156 -40.375
Q26.375 -40.375 22.4844 -35.8281
Q18.6094 -31.2969 18.6094 -23.3906
Q18.6094 -15.5312 22.4844 -10.9531
Q26.375 -6.39062 33.0156 -6.39062
Q39.6562 -6.39062 43.5312 -10.9531
Q47.4062 -15.5312 47.4062 -23.3906
Q47.4062 -31.2969 43.5312 -35.8281
Q39.6562 -40.375 33.0156 -40.375
M52.5938 -71.2969
L52.5938 -62.3125
Q48.875 -64.0625 45.0938 -64.9844
Q41.3125 -65.9219 37.5938 -65.9219
Q27.8281 -65.9219 22.6719 -59.3281
Q17.5312 -52.7344 16.7969 -39.4062
Q19.6719 -43.6562 24.0156 -45.9219
Q28.375 -48.1875 33.5938 -48.1875
Q44.5781 -48.1875 50.9531 -41.5156
Q57.3281 -34.8594 57.3281 -23.3906
Q57.3281 -12.1562 50.6875 -5.35938
Q44.0469 1.42188 33.0156 1.42188
Q20.3594 1.42188 13.6719 -8.26562
Q6.98438 -17.9688 6.98438 -36.375
Q6.98438 -53.6562 15.1875 -63.9375
Q23.3906 -74.2188 37.2031 -74.2188
Q40.9219 -74.2188 44.7031 -73.4844
Q48.4844 -72.75 52.5938 -71.2969" id="BitstreamVeraSans-Roman-36"/>
      </defs>
      <g transform="translate(132.067358491 401.70625)scale(0.12)">
       <use xlink:href="#BitstreamVeraSans-Roman-31"/>
       <use x="63.623046875" xlink:href="#BitstreamVeraSans-Roman-39"/>
       <use x="127.24609375" xlink:href="#BitstreamVeraSans-Roman-36"/>
       <use x="190.869140625" xlink:href="#BitstreamVeraSans-Roman-32"/>
      </g>
     </g>
    </g>
    <g id="xtick_2">
     <g id="line2d_4">
      <defs>
       <path d="
M0 0
L0 -4" id="mc5237446e2"/>
      </defs>
      <g>
       <use style="fill:none;stroke:#000000;stroke-linecap:butt;stroke-width:0.5;" x="197.350188679" xlink:href="#mc5237446e2" y="388.8"/>
      </g>
     </g>
     <g id="line2d_5">
      <defs>
       <path d="
M0 0
L0 4" id="m0a1661ac28"/>
      </defs>
      <g>
       <use style="fill:none;stroke:#000000;stroke-linecap:butt;stroke-width:0.5;" x="197.350188679" xlink:href="#m0a1661ac28" y="43.2"/>
      </g>
     </g>
     <g id="text_2">
      <!-- 1966 -->
      <g transform="translate(183.117063679 401.70625)scale(0.12)">
       <use xlink:href="#BitstreamVeraSans-Roman-31"/>
       <use x="63.623046875" xlink:href="#BitstreamVeraSans-Roman-39"/>
       <use x="127.24609375" xlink:href="#BitstreamVeraSans-Roman-36"/>
       <use x="190.869140625" xlink:href="#BitstreamVeraSans-Roman-36"/>
      </g>
     </g>
    </g>
    <g id="xtick_3">
     <g id="line2d_6">
      <defs>
       <path d="
M0 0
L0 -4" id="mc5237446e2"/>
      </defs>
      <g>
       <use style="fill:none;stroke:#000000;stroke-linecap:butt;stroke-width:0.5;" x="248.623018868" xlink:href="#mc5237446e2" y="388.8"/>
      </g>
     </g>
     <g id="line2d_7">
      <defs>
       <path d="
M0 0
L0 4" id="m0a1661ac28"/>
      </defs>
      <g>
       <use style="fill:none;stroke:#000000;stroke-linecap:butt;stroke-width:0.5;" x="248.623018868" xlink:href="#m0a1661ac28" y="43.2"/>
      </g>
     </g>
     <g id="text_3">
      <!-- 1970 -->
      <defs>
       <path d="
M31.7812 -66.4062
Q24.1719 -66.4062 20.3281 -58.9062
Q16.5 -51.4219 16.5 -36.375
Q16.5 -21.3906 20.3281 -13.8906
Q24.1719 -6.39062 31.7812 -6.39062
Q39.4531 -6.39062 43.2812 -13.8906
Q47.125 -21.3906 47.125 -36.375
Q47.125 -51.4219 43.2812 -58.9062
Q39.4531 -66.4062 31.7812 -66.4062
M31.7812 -74.2188
Q44.0469 -74.2188 50.5156 -64.5156
Q56.9844 -54.8281 56.9844 -36.375
Q56.9844 -17.9688 50.5156 -8.26562
Q44.0469 1.42188 31.7812 1.42188
Q19.5312 1.42188 13.0625 -8.26562
Q6.59375 -17.9688 6.59375 -36.375
Q6.59375 -54.8281 13.0625 -64.5156
Q19.5312 -74.2188 31.7812 -74.2188" id="BitstreamVeraSans-Roman-30"/>
       <path d="
M8.20312 -72.9062
L55.0781 -72.9062
L55.0781 -68.7031
L28.6094 0
L18.3125 0
L43.2188 -64.5938
L8.20312 -64.5938
z
" id="BitstreamVeraSans-Roman-37"/>
      </defs>
      <g transform="translate(234.410518868 401.70625)scale(0.12)">
       <use xlink:href="#BitstreamVeraSans-Roman-31"/>
       <use x="63.623046875" xlink:href="#BitstreamVeraSans-Roman-39"/>
       <use x="127.24609375" xlink:href="#BitstreamVeraSans-Roman-37"/>
       <use x="190.869140625" xlink:href="#BitstreamVeraSans-Roman-30"/>
      </g>
     </g>
    </g>
    <g id="xtick_4">
     <g id="line2d_8">
      <defs>
       <path d="
M0 0
L0 -4" id="mc5237446e2"/>
      </defs>
      <g>
       <use style="fill:none;stroke:#000000;stroke-linecap:butt;stroke-width:0.5;" x="299.895849057" xlink:href="#mc5237446e2" y="388.8"/>
      </g>
     </g>
     <g id="line2d_9">
      <defs>
       <path d="
M0 0
L0 4" id="m0a1661ac28"/>
      </defs>
      <g>
       <use style="fill:none;stroke:#000000;stroke-linecap:butt;stroke-width:0.5;" x="299.895849057" xlink:href="#m0a1661ac28" y="43.2"/>
      </g>
     </g>
     <g id="text_4">
      <!-- 1974 -->
      <defs>
       <path d="
M37.7969 -64.3125
L12.8906 -25.3906
L37.7969 -25.3906
z

M35.2031 -72.9062
L47.6094 -72.9062
L47.6094 -25.3906
L58.0156 -25.3906
L58.0156 -17.1875
L47.6094 -17.1875
L47.6094 0
L37.7969 0
L37.7969 -17.1875
L4.89062 -17.1875
L4.89062 -26.7031
z
" id="BitstreamVeraSans-Roman-34"/>
      </defs>
      <g transform="translate(285.621474057 401.70625)scale(0.12)">
       <use xlink:href="#BitstreamVeraSans-Roman-31"/>
       <use x="63.623046875" xlink:href="#BitstreamVeraSans-Roman-39"/>
       <use x="127.24609375" xlink:href="#BitstreamVeraSans-Roman-37"/>
       <use x="190.869140625" xlink:href="#BitstreamVeraSans-Roman-34"/>
      </g>
     </g>
    </g>
    <g id="xtick_5">
     <g id="line2d_10">
      <defs>
       <path d="
M0 0
L0 -4" id="mc5237446e2"/>
      </defs>
      <g>
       <use style="fill:none;stroke:#000000;stroke-linecap:butt;stroke-width:0.5;" x="351.168679245" xlink:href="#mc5237446e2" y="388.8"/>
      </g>
     </g>
     <g id="line2d_11">
      <defs>
       <path d="
M0 0
L0 4" id="m0a1661ac28"/>
      </defs>
      <g>
       <use style="fill:none;stroke:#000000;stroke-linecap:butt;stroke-width:0.5;" x="351.168679245" xlink:href="#m0a1661ac28" y="43.2"/>
      </g>
     </g>
     <g id="text_5">
      <!-- 1978 -->
      <defs>
       <path d="
M31.7812 -34.625
Q24.75 -34.625 20.7188 -30.8594
Q16.7031 -27.0938 16.7031 -20.5156
Q16.7031 -13.9219 20.7188 -10.1562
Q24.75 -6.39062 31.7812 -6.39062
Q38.8125 -6.39062 42.8594 -10.1719
Q46.9219 -13.9688 46.9219 -20.5156
Q46.9219 -27.0938 42.8906 -30.8594
Q38.875 -34.625 31.7812 -34.625
M21.9219 -38.8125
Q15.5781 -40.375 12.0312 -44.7188
Q8.5 -49.0781 8.5 -55.3281
Q8.5 -64.0625 14.7188 -69.1406
Q20.9531 -74.2188 31.7812 -74.2188
Q42.6719 -74.2188 48.875 -69.1406
Q55.0781 -64.0625 55.0781 -55.3281
Q55.0781 -49.0781 51.5312 -44.7188
Q48 -40.375 41.7031 -38.8125
Q48.8281 -37.1562 52.7969 -32.3125
Q56.7812 -27.4844 56.7812 -20.5156
Q56.7812 -9.90625 50.3125 -4.23438
Q43.8438 1.42188 31.7812 1.42188
Q19.7344 1.42188 13.25 -4.23438
Q6.78125 -9.90625 6.78125 -20.5156
Q6.78125 -27.4844 10.7812 -32.3125
Q14.7969 -37.1562 21.9219 -38.8125
M18.3125 -54.3906
Q18.3125 -48.7344 21.8438 -45.5625
Q25.3906 -42.3906 31.7812 -42.3906
Q38.1406 -42.3906 41.7188 -45.5625
Q45.3125 -48.7344 45.3125 -54.3906
Q45.3125 -60.0625 41.7188 -63.2344
Q38.1406 -66.4062 31.7812 -66.4062
Q25.3906 -66.4062 21.8438 -63.2344
Q18.3125 -60.0625 18.3125 -54.3906" id="BitstreamVeraSans-Roman-38"/>
      </defs>
      <g transform="translate(336.968366745 401.70625)scale(0.12)">
       <use xlink:href="#BitstreamVeraSans-Roman-31"/>
       <use x="63.623046875" xlink:href="#BitstreamVeraSans-Roman-39"/>
       <use x="127.24609375" xlink:href="#BitstreamVeraSans-Roman-37"/>
       <use x="190.869140625" xlink:href="#BitstreamVeraSans-Roman-38"/>
      </g>
     </g>
    </g>
    <g id="xtick_6">
     <g id="line2d_12">
      <defs>
       <path d="
M0 0
L0 -4" id="mc5237446e2"/>
      </defs>
      <g>
       <use style="fill:none;stroke:#000000;stroke-linecap:butt;stroke-width:0.5;" x="402.441509434" xlink:href="#mc5237446e2" y="388.8"/>
      </g>
     </g>
     <g id="line2d_13">
      <defs>
       <path d="
M0 0
L0 4" id="m0a1661ac28"/>
      </defs>
      <g>
       <use style="fill:none;stroke:#000000;stroke-linecap:butt;stroke-width:0.5;" x="402.441509434" xlink:href="#m0a1661ac28" y="43.2"/>
      </g>
     </g>
     <g id="text_6">
      <!-- 1982 -->
      <g transform="translate(388.431509434 401.70625)scale(0.12)">
       <use xlink:href="#BitstreamVeraSans-Roman-31"/>
       <use x="63.623046875" xlink:href="#BitstreamVeraSans-Roman-39"/>
       <use x="127.24609375" xlink:href="#BitstreamVeraSans-Roman-38"/>
       <use x="190.869140625" xlink:href="#BitstreamVeraSans-Roman-32"/>
      </g>
     </g>
    </g>
    <g id="xtick_7">
     <g id="line2d_14">
      <defs>
       <path d="
M0 0
L0 -4" id="mc5237446e2"/>
      </defs>
      <g>
       <use style="fill:none;stroke:#000000;stroke-linecap:butt;stroke-width:0.5;" x="453.714339623" xlink:href="#mc5237446e2" y="388.8"/>
      </g>
     </g>
     <g id="line2d_15">
      <defs>
       <path d="
M0 0
L0 4" id="m0a1661ac28"/>
      </defs>
      <g>
       <use style="fill:none;stroke:#000000;stroke-linecap:butt;stroke-width:0.5;" x="453.714339623" xlink:href="#m0a1661ac28" y="43.2"/>
      </g>
     </g>
     <g id="text_7">
      <!-- 1986 -->
      <g transform="translate(439.481214623 401.70625)scale(0.12)">
       <use xlink:href="#BitstreamVeraSans-Roman-31"/>
       <use x="63.623046875" xlink:href="#BitstreamVeraSans-Roman-39"/>
       <use x="127.24609375" xlink:href="#BitstreamVeraSans-Roman-38"/>
       <use x="190.869140625" xlink:href="#BitstreamVeraSans-Roman-36"/>
      </g>
     </g>
    </g>
    <g id="xtick_8">
     <g id="line2d_16">
      <defs>
       <path d="
M0 0
L0 -4" id="mc5237446e2"/>
      </defs>
      <g>
       <use style="fill:none;stroke:#000000;stroke-linecap:butt;stroke-width:0.5;" x="504.987169811" xlink:href="#mc5237446e2" y="388.8"/>
      </g>
     </g>
     <g id="line2d_17">
      <defs>
       <path d="
M0 0
L0 4" id="m0a1661ac28"/>
      </defs>
      <g>
       <use style="fill:none;stroke:#000000;stroke-linecap:butt;stroke-width:0.5;" x="504.987169811" xlink:href="#m0a1661ac28" y="43.2"/>
      </g>
     </g>
     <g id="text_8">
      <!-- 1990 -->
      <g transform="translate(490.774669811 401.70625)scale(0.12)">
       <use xlink:href="#BitstreamVeraSans-Roman-31"/>
       <use x="63.623046875" xlink:href="#BitstreamVeraSans-Roman-39"/>
       <use x="127.24609375" xlink:href="#BitstreamVeraSans-Roman-39"/>
       <use x="190.869140625" xlink:href="#BitstreamVeraSans-Roman-30"/>
      </g>
     </g>
    </g>
    <g id="xtick_9">
     <g id="line2d_18">
      <defs>
       <path d="
M0 0
L0 -4" id="mc5237446e2"/>
      </defs>
      <g>
       <use style="fill:none;stroke:#000000;stroke-linecap:butt;stroke-width:0.5;" x="556.26" xlink:href="#mc5237446e2" y="388.8"/>
      </g>
     </g>
     <g id="line2d_19">
      <defs>
       <path d="
M0 0
L0 4" id="m0a1661ac28"/>
      </defs>
      <g>
       <use style="fill:none;stroke:#000000;stroke-linecap:butt;stroke-width:0.5;" x="556.26" xlink:href="#m0a1661ac28" y="43.2"/>
      </g>
     </g>
     <g id="text_9">
      <!-- 1994 -->
      <g transform="translate(541.985625 401.70625)scale(0.12)">
       <use xlink:href="#BitstreamVeraSans-Roman-31"/>
       <use x="63.623046875" xlink:href="#BitstreamVeraSans-Roman-39"/>
       <use x="127.24609375" xlink:href="#BitstreamVeraSans-Roman-39"/>
       <use x="190.869140625" xlink:href="#BitstreamVeraSans-Roman-34"/>
      </g>
     </g>
    </g>
    <g id="xtick_10">
     <g id="line2d_20">
      <defs>
       <path d="
M0 0
L0 -4" id="mc5237446e2"/>
      </defs>
      <g>
       <use style="fill:none;stroke:#000000;stroke-linecap:butt;stroke-width:0.5;" x="607.532830189" xlink:href="#mc5237446e2" y="388.8"/>
      </g>
     </g>
     <g id="line2d_21">
      <defs>
       <path d="
M0 0
L0 4" id="m0a1661ac28"/>
      </defs>
      <g>
       <use style="fill:none;stroke:#000000;stroke-linecap:butt;stroke-width:0.5;" x="607.532830189" xlink:href="#m0a1661ac28" y="43.2"/>
      </g>
     </g>
     <g id="text_10">
      <!-- 1998 -->
      <g transform="translate(593.332517689 401.70625)scale(0.12)">
       <use xlink:href="#BitstreamVeraSans-Roman-31"/>
       <use x="63.623046875" xlink:href="#BitstreamVeraSans-Roman-39"/>
       <use x="127.24609375" xlink:href="#BitstreamVeraSans-Roman-39"/>
       <use x="190.869140625" xlink:href="#BitstreamVeraSans-Roman-38"/>
      </g>
     </g>
    </g>
    <g id="xtick_11">
     <g id="line2d_22">
      <defs>
       <path d="
M0 0
L0 -4" id="mc5237446e2"/>
      </defs>
      <g>
       <use style="fill:none;stroke:#000000;stroke-linecap:butt;stroke-width:0.5;" x="658.805660377" xlink:href="#mc5237446e2" y="388.8"/>
      </g>
     </g>
     <g id="line2d_23">
      <defs>
       <path d="
M0 0
L0 4" id="m0a1661ac28"/>
      </defs>
      <g>
       <use style="fill:none;stroke:#000000;stroke-linecap:butt;stroke-width:0.5;" x="658.805660377" xlink:href="#m0a1661ac28" y="43.2"/>
      </g>
     </g>
     <g id="text_11">
      <!-- 2002 -->
      <g transform="translate(644.576285377 401.70625)scale(0.12)">
       <use xlink:href="#BitstreamVeraSans-Roman-32"/>
       <use x="63.623046875" xlink:href="#BitstreamVeraSans-Roman-30"/>
       <use x="127.24609375" xlink:href="#BitstreamVeraSans-Roman-30"/>
       <use x="190.869140625" xlink:href="#BitstreamVeraSans-Roman-32"/>
      </g>
     </g>
    </g>
    <g id="xtick_12">
     <g id="line2d_24">
      <defs>
       <path d="
M0 0
L0 -4" id="mc5237446e2"/>
      </defs>
      <g>
       <use style="fill:none;stroke:#000000;stroke-linecap:butt;stroke-width:0.5;" x="710.078490566" xlink:href="#mc5237446e2" y="388.8"/>
      </g>
     </g>
     <g id="line2d_25">
      <defs>
       <path d="
M0 0
L0 4" id="m0a1661ac28"/>
      </defs>
      <g>
       <use style="fill:none;stroke:#000000;stroke-linecap:butt;stroke-width:0.5;" x="710.078490566" xlink:href="#m0a1661ac28" y="43.2"/>
      </g>
     </g>
     <g id="text_12">
      <!-- 2006 -->
      <g transform="translate(695.625990566 401.70625)scale(0.12)">
       <use xlink:href="#BitstreamVeraSans-Roman-32"/>
       <use x="63.623046875" xlink:href="#BitstreamVeraSans-Roman-30"/>
       <use x="127.24609375" xlink:href="#BitstreamVeraSans-Roman-30"/>
       <use x="190.869140625" xlink:href="#BitstreamVeraSans-Roman-36"/>
      </g>
     </g>
    </g>
    <g id="xtick_13">
     <g id="line2d_26">
      <defs>
       <path d="
M0 0
L0 -4" id="mc5237446e2"/>
      </defs>
      <g>
       <use style="fill:none;stroke:#000000;stroke-linecap:butt;stroke-width:0.5;" x="761.351320755" xlink:href="#mc5237446e2" y="388.8"/>
      </g>
     </g>
     <g id="line2d_27">
      <defs>
       <path d="
M0 0
L0 4" id="m0a1661ac28"/>
      </defs>
      <g>
       <use style="fill:none;stroke:#000000;stroke-linecap:butt;stroke-width:0.5;" x="761.351320755" xlink:href="#m0a1661ac28" y="43.2"/>
      </g>
     </g>
     <g id="text_13">
      <!-- 2010 -->
      <g transform="translate(746.919445755 401.70625)scale(0.12)">
       <use xlink:href="#BitstreamVeraSans-Roman-32"/>
       <use x="63.623046875" xlink:href="#BitstreamVeraSans-Roman-30"/>
       <use x="127.24609375" xlink:href="#BitstreamVeraSans-Roman-31"/>
       <use x="190.869140625" xlink:href="#BitstreamVeraSans-Roman-30"/>
      </g>
     </g>
    </g>
    <g id="text_14">
     <!-- year -->
     <defs>
      <path d="
M56.2031 -29.5938
L56.2031 -25.2031
L14.8906 -25.2031
Q15.4844 -15.9219 20.4844 -11.0625
Q25.4844 -6.20312 34.4219 -6.20312
Q39.5938 -6.20312 44.4531 -7.46875
Q49.3125 -8.73438 54.1094 -11.2812
L54.1094 -2.78125
Q49.2656 -0.734375 44.1875 0.34375
Q39.1094 1.42188 33.8906 1.42188
Q20.7969 1.42188 13.1562 -6.1875
Q5.51562 -13.8125 5.51562 -26.8125
Q5.51562 -40.2344 12.7656 -48.1094
Q20.0156 -56 32.3281 -56
Q43.3594 -56 49.7812 -48.8906
Q56.2031 -41.7969 56.2031 -29.5938
M47.2188 -32.2344
Q47.125 -39.5938 43.0938 -43.9844
Q39.0625 -48.3906 32.4219 -48.3906
Q24.9062 -48.3906 20.3906 -44.1406
Q15.875 -39.8906 15.1875 -32.1719
z
" id="BitstreamVeraSans-Roman-65"/>
      <path d="
M41.1094 -46.2969
Q39.5938 -47.1719 37.8125 -47.5781
Q36.0312 -48 33.8906 -48
Q26.2656 -48 22.1875 -43.0469
Q18.1094 -38.0938 18.1094 -28.8125
L18.1094 0
L9.07812 0
L9.07812 -54.6875
L18.1094 -54.6875
L18.1094 -46.1875
Q20.9531 -51.1719 25.4844 -53.5781
Q30.0312 -56 36.5312 -56
Q37.4531 -56 38.5781 -55.875
Q39.7031 -55.7656 41.0625 -55.5156
z
" id="BitstreamVeraSans-Roman-72"/>
      <path d="
M34.2812 -27.4844
Q23.3906 -27.4844 19.1875 -25
Q14.9844 -22.5156 14.9844 -16.5
Q14.9844 -11.7188 18.1406 -8.90625
Q21.2969 -6.10938 26.7031 -6.10938
Q34.1875 -6.10938 38.7031 -11.4062
Q43.2188 -16.7031 43.2188 -25.4844
L43.2188 -27.4844
z

M52.2031 -31.2031
L52.2031 0
L43.2188 0
L43.2188 -8.29688
Q40.1406 -3.32812 35.5469 -0.953125
Q30.9531 1.42188 24.3125 1.42188
Q15.9219 1.42188 10.9531 -3.29688
Q6 -8.01562 6 -15.9219
Q6 -25.1406 12.1719 -29.8281
Q18.3594 -34.5156 30.6094 -34.5156
L43.2188 -34.5156
L43.2188 -35.4062
Q43.2188 -41.6094 39.1406 -45
Q35.0625 -48.3906 27.6875 -48.3906
Q23 -48.3906 18.5469 -47.2656
Q14.1094 -46.1406 10.0156 -43.8906
L10.0156 -52.2031
Q14.9375 -54.1094 19.5781 -55.0469
Q24.2188 -56 28.6094 -56
Q40.4844 -56 46.3438 -49.8438
Q52.2031 -43.7031 52.2031 -31.2031" id="BitstreamVeraSans-Roman-61"/>
      <path d="
M32.1719 5.07812
Q28.375 14.8438 24.75 17.8125
Q21.1406 20.7969 15.0938 20.7969
L7.90625 20.7969
L7.90625 13.2812
L13.1875 13.2812
Q16.8906 13.2812 18.9375 11.5156
Q21 9.76562 23.4844 3.21875
L25.0938 -0.875
L2.98438 -54.6875
L12.5 -54.6875
L29.5938 -11.9219
L46.6875 -54.6875
L56.2031 -54.6875
z
" id="BitstreamVeraSans-Roman-79"/>
     </defs>
     <g transform="translate(429.5925 413.596875)scale(0.12)">
      <use xlink:href="#BitstreamVeraSans-Roman-79"/>
      <use x="59.1796875" xlink:href="#BitstreamVeraSans-Roman-65"/>
      <use x="120.703125" xlink:href="#BitstreamVeraSans-Roman-61"/>
      <use x="181.982421875" xlink:href="#BitstreamVeraSans-Roman-72"/>
     </g>
    </g>
   </g>
   <g id="matplotlib.axis_2">
    <g id="ytick_1">
     <g id="line2d_28">
      <defs>
       <path d="
M0 0
L4 0" id="m9942eb41fc"/>
      </defs>
      <g>
       <use style="fill:none;stroke:#000000;stroke-linecap:butt;stroke-width:0.5;" x="108.0" xlink:href="#m9942eb41fc" y="388.8"/>
      </g>
     </g>
     <g id="line2d_29">
      <defs>
       <path d="
M0 0
L-4 0" id="mf85290a3df"/>
      </defs>
      <g>
       <use style="fill:none;stroke:#000000;stroke-linecap:butt;stroke-width:0.5;" x="777.6" xlink:href="#mf85290a3df" y="388.8"/>
      </g>
     </g>
     <g id="text_15">
      <!-- 0.00 -->
      <defs>
       <path d="
M10.6875 -12.4062
L21 -12.4062
L21 0
L10.6875 0
z
" id="BitstreamVeraSans-Roman-2e"/>
      </defs>
      <g transform="translate(78.869375 393.1678125)scale(0.12)">
       <use xlink:href="#BitstreamVeraSans-Roman-30"/>
       <use x="63.623046875" xlink:href="#BitstreamVeraSans-Roman-2e"/>
       <use x="95.41015625" xlink:href="#BitstreamVeraSans-Roman-30"/>
       <use x="159.033203125" xlink:href="#BitstreamVeraSans-Roman-30"/>
      </g>
     </g>
    </g>
    <g id="ytick_2">
     <g id="line2d_30">
      <defs>
       <path d="
M0 0
L4 0" id="m9942eb41fc"/>
      </defs>
      <g>
       <use style="fill:none;stroke:#000000;stroke-linecap:butt;stroke-width:0.5;" x="108.0" xlink:href="#m9942eb41fc" y="319.68"/>
      </g>
     </g>
     <g id="line2d_31">
      <defs>
       <path d="
M0 0
L-4 0" id="mf85290a3df"/>
      </defs>
      <g>
       <use style="fill:none;stroke:#000000;stroke-linecap:butt;stroke-width:0.5;" x="777.6" xlink:href="#mf85290a3df" y="319.68"/>
      </g>
     </g>
     <g id="text_16">
      <!-- 0.05 -->
      <defs>
       <path d="
M10.7969 -72.9062
L49.5156 -72.9062
L49.5156 -64.5938
L19.8281 -64.5938
L19.8281 -46.7344
Q21.9688 -47.4688 24.1094 -47.8281
Q26.2656 -48.1875 28.4219 -48.1875
Q40.625 -48.1875 47.75 -41.5
Q54.8906 -34.8125 54.8906 -23.3906
Q54.8906 -11.625 47.5625 -5.09375
Q40.2344 1.42188 26.9062 1.42188
Q22.3125 1.42188 17.5469 0.640625
Q12.7969 -0.140625 7.71875 -1.70312
L7.71875 -11.625
Q12.1094 -9.23438 16.7969 -8.0625
Q21.4844 -6.89062 26.7031 -6.89062
Q35.1562 -6.89062 40.0781 -11.3281
Q45.0156 -15.7656 45.0156 -23.3906
Q45.0156 -31 40.0781 -35.4375
Q35.1562 -39.8906 26.7031 -39.8906
Q22.75 -39.8906 18.8125 -39.0156
Q14.8906 -38.1406 10.7969 -36.2812
z
" id="BitstreamVeraSans-Roman-35"/>
      </defs>
      <g transform="translate(79.120625 324.0478125)scale(0.12)">
       <use xlink:href="#BitstreamVeraSans-Roman-30"/>
       <use x="63.623046875" xlink:href="#BitstreamVeraSans-Roman-2e"/>
       <use x="95.41015625" xlink:href="#BitstreamVeraSans-Roman-30"/>
       <use x="159.033203125" xlink:href="#BitstreamVeraSans-Roman-35"/>
      </g>
     </g>
    </g>
    <g id="ytick_3">
     <g id="line2d_32">
      <defs>
       <path d="
M0 0
L4 0" id="m9942eb41fc"/>
      </defs>
      <g>
       <use style="fill:none;stroke:#000000;stroke-linecap:butt;stroke-width:0.5;" x="108.0" xlink:href="#m9942eb41fc" y="250.56"/>
      </g>
     </g>
     <g id="line2d_33">
      <defs>
       <path d="
M0 0
L-4 0" id="mf85290a3df"/>
      </defs>
      <g>
       <use style="fill:none;stroke:#000000;stroke-linecap:butt;stroke-width:0.5;" x="777.6" xlink:href="#mf85290a3df" y="250.56"/>
      </g>
     </g>
     <g id="text_17">
      <!-- 0.10 -->
      <g transform="translate(78.869375 254.9278125)scale(0.12)">
       <use xlink:href="#BitstreamVeraSans-Roman-30"/>
       <use x="63.623046875" xlink:href="#BitstreamVeraSans-Roman-2e"/>
       <use x="95.41015625" xlink:href="#BitstreamVeraSans-Roman-31"/>
       <use x="159.033203125" xlink:href="#BitstreamVeraSans-Roman-30"/>
      </g>
     </g>
    </g>
    <g id="ytick_4">
     <g id="line2d_34">
      <defs>
       <path d="
M0 0
L4 0" id="m9942eb41fc"/>
      </defs>
      <g>
       <use style="fill:none;stroke:#000000;stroke-linecap:butt;stroke-width:0.5;" x="108.0" xlink:href="#m9942eb41fc" y="181.44"/>
      </g>
     </g>
     <g id="line2d_35">
      <defs>
       <path d="
M0 0
L-4 0" id="mf85290a3df"/>
      </defs>
      <g>
       <use style="fill:none;stroke:#000000;stroke-linecap:butt;stroke-width:0.5;" x="777.6" xlink:href="#mf85290a3df" y="181.44"/>
      </g>
     </g>
     <g id="text_18">
      <!-- 0.15 -->
      <g transform="translate(79.120625 185.8078125)scale(0.12)">
       <use xlink:href="#BitstreamVeraSans-Roman-30"/>
       <use x="63.623046875" xlink:href="#BitstreamVeraSans-Roman-2e"/>
       <use x="95.41015625" xlink:href="#BitstreamVeraSans-Roman-31"/>
       <use x="159.033203125" xlink:href="#BitstreamVeraSans-Roman-35"/>
      </g>
     </g>
    </g>
    <g id="ytick_5">
     <g id="line2d_36">
      <defs>
       <path d="
M0 0
L4 0" id="m9942eb41fc"/>
      </defs>
      <g>
       <use style="fill:none;stroke:#000000;stroke-linecap:butt;stroke-width:0.5;" x="108.0" xlink:href="#m9942eb41fc" y="112.32"/>
      </g>
     </g>
     <g id="line2d_37">
      <defs>
       <path d="
M0 0
L-4 0" id="mf85290a3df"/>
      </defs>
      <g>
       <use style="fill:none;stroke:#000000;stroke-linecap:butt;stroke-width:0.5;" x="777.6" xlink:href="#mf85290a3df" y="112.32"/>
      </g>
     </g>
     <g id="text_19">
      <!-- 0.20 -->
      <g transform="translate(78.869375 116.6878125)scale(0.12)">
       <use xlink:href="#BitstreamVeraSans-Roman-30"/>
       <use x="63.623046875" xlink:href="#BitstreamVeraSans-Roman-2e"/>
       <use x="95.41015625" xlink:href="#BitstreamVeraSans-Roman-32"/>
       <use x="159.033203125" xlink:href="#BitstreamVeraSans-Roman-30"/>
      </g>
     </g>
    </g>
    <g id="ytick_6">
     <g id="line2d_38">
      <defs>
       <path d="
M0 0
L4 0" id="m9942eb41fc"/>
      </defs>
      <g>
       <use style="fill:none;stroke:#000000;stroke-linecap:butt;stroke-width:0.5;" x="108.0" xlink:href="#m9942eb41fc" y="43.2"/>
      </g>
     </g>
     <g id="line2d_39">
      <defs>
       <path d="
M0 0
L-4 0" id="mf85290a3df"/>
      </defs>
      <g>
       <use style="fill:none;stroke:#000000;stroke-linecap:butt;stroke-width:0.5;" x="777.6" xlink:href="#mf85290a3df" y="43.2"/>
      </g>
     </g>
     <g id="text_20">
      <!-- 0.25 -->
      <g transform="translate(79.120625 47.5678125)scale(0.12)">
       <use xlink:href="#BitstreamVeraSans-Roman-30"/>
       <use x="63.623046875" xlink:href="#BitstreamVeraSans-Roman-2e"/>
       <use x="95.41015625" xlink:href="#BitstreamVeraSans-Roman-32"/>
       <use x="159.033203125" xlink:href="#BitstreamVeraSans-Roman-35"/>
      </g>
     </g>
    </g>
    <g id="text_21">
     <!-- me-ratio -->
     <defs>
      <path d="
M52 -44.1875
Q55.375 -50.25 60.0625 -53.125
Q64.75 -56 71.0938 -56
Q79.6406 -56 84.2812 -50.0156
Q88.9219 -44.0469 88.9219 -33.0156
L88.9219 0
L79.8906 0
L79.8906 -32.7188
Q79.8906 -40.5781 77.0938 -44.375
Q74.3125 -48.1875 68.6094 -48.1875
Q61.625 -48.1875 57.5625 -43.5469
Q53.5156 -38.9219 53.5156 -30.9062
L53.5156 0
L44.4844 0
L44.4844 -32.7188
Q44.4844 -40.625 41.7031 -44.4062
Q38.9219 -48.1875 33.1094 -48.1875
Q26.2188 -48.1875 22.1562 -43.5312
Q18.1094 -38.875 18.1094 -30.9062
L18.1094 0
L9.07812 0
L9.07812 -54.6875
L18.1094 -54.6875
L18.1094 -46.1875
Q21.1875 -51.2188 25.4844 -53.6094
Q29.7812 -56 35.6875 -56
Q41.6562 -56 45.8281 -52.9688
Q50 -49.9531 52 -44.1875" id="BitstreamVeraSans-Roman-6d"/>
      <path d="
M18.3125 -70.2188
L18.3125 -54.6875
L36.8125 -54.6875
L36.8125 -47.7031
L18.3125 -47.7031
L18.3125 -18.0156
Q18.3125 -11.3281 20.1406 -9.42188
Q21.9688 -7.51562 27.5938 -7.51562
L36.8125 -7.51562
L36.8125 0
L27.5938 0
Q17.1875 0 13.2344 -3.875
Q9.28125 -7.76562 9.28125 -18.0156
L9.28125 -47.7031
L2.6875 -47.7031
L2.6875 -54.6875
L9.28125 -54.6875
L9.28125 -70.2188
z
" id="BitstreamVeraSans-Roman-74"/>
      <path d="
M30.6094 -48.3906
Q23.3906 -48.3906 19.1875 -42.75
Q14.9844 -37.1094 14.9844 -27.2969
Q14.9844 -17.4844 19.1562 -11.8438
Q23.3438 -6.20312 30.6094 -6.20312
Q37.7969 -6.20312 41.9844 -11.8594
Q46.1875 -17.5312 46.1875 -27.2969
Q46.1875 -37.0156 41.9844 -42.7031
Q37.7969 -48.3906 30.6094 -48.3906
M30.6094 -56
Q42.3281 -56 49.0156 -48.375
Q55.7188 -40.7656 55.7188 -27.2969
Q55.7188 -13.875 49.0156 -6.21875
Q42.3281 1.42188 30.6094 1.42188
Q18.8438 1.42188 12.1719 -6.21875
Q5.51562 -13.875 5.51562 -27.2969
Q5.51562 -40.7656 12.1719 -48.375
Q18.8438 -56 30.6094 -56" id="BitstreamVeraSans-Roman-6f"/>
      <path d="
M9.42188 -54.6875
L18.4062 -54.6875
L18.4062 0
L9.42188 0
z

M9.42188 -75.9844
L18.4062 -75.9844
L18.4062 -64.5938
L9.42188 -64.5938
z
" id="BitstreamVeraSans-Roman-69"/>
      <path d="
M4.89062 -31.3906
L31.2031 -31.3906
L31.2031 -23.3906
L4.89062 -23.3906
z
" id="BitstreamVeraSans-Roman-2d"/>
     </defs>
     <g transform="translate(73.869375 240.49125)rotate(-90.0)scale(0.12)">
      <use xlink:href="#BitstreamVeraSans-Roman-6d"/>
      <use x="97.412109375" xlink:href="#BitstreamVeraSans-Roman-65"/>
      <use x="158.935546875" xlink:href="#BitstreamVeraSans-Roman-2d"/>
      <use x="195.01953125" xlink:href="#BitstreamVeraSans-Roman-72"/>
      <use x="236.1328125" xlink:href="#BitstreamVeraSans-Roman-61"/>
      <use x="297.412109375" xlink:href="#BitstreamVeraSans-Roman-74"/>
      <use x="336.62109375" xlink:href="#BitstreamVeraSans-Roman-69"/>
      <use x="364.404296875" xlink:href="#BitstreamVeraSans-Roman-6f"/>
     </g>
    </g>
   </g>
   <g id="patch_3">
    <path d="
M108 43.2
L777.6 43.2" style="fill:none;stroke:#000000;"/>
   </g>
   <g id="patch_4">
    <path d="
M777.6 388.8
L777.6 43.2" style="fill:none;stroke:#000000;"/>
   </g>
   <g id="patch_5">
    <path d="
M108 388.8
L777.6 388.8" style="fill:none;stroke:#000000;"/>
   </g>
   <g id="patch_6">
    <path d="
M108 388.8
L108 43.2" style="fill:none;stroke:#000000;"/>
   </g>
   <g id="text_22">
    <!-- Self-Centeredness of Number 1 Songs: 1958-2011 -->
    <defs>
     <path id="BitstreamVeraSans-Roman-20"/>
     <path d="
M9.8125 -72.9062
L23.0938 -72.9062
L55.4219 -11.9219
L55.4219 -72.9062
L64.9844 -72.9062
L64.9844 0
L51.7031 0
L19.3906 -60.9844
L19.3906 0
L9.8125 0
z
" id="BitstreamVeraSans-Roman-4e"/>
     <path d="
M8.5 -21.5781
L8.5 -54.6875
L17.4844 -54.6875
L17.4844 -21.9219
Q17.4844 -14.1562 20.5 -10.2656
Q23.5312 -6.39062 29.5938 -6.39062
Q36.8594 -6.39062 41.0781 -11.0312
Q45.3125 -15.6719 45.3125 -23.6875
L45.3125 -54.6875
L54.2969 -54.6875
L54.2969 0
L45.3125 0
L45.3125 -8.40625
Q42.0469 -3.42188 37.7188 -1
Q33.4062 1.42188 27.6875 1.42188
Q18.2656 1.42188 13.375 -4.4375
Q8.5 -10.2969 8.5 -21.5781" id="BitstreamVeraSans-Roman-75"/>
     <path d="
M54.8906 -33.0156
L54.8906 0
L45.9062 0
L45.9062 -32.7188
Q45.9062 -40.4844 42.875 -44.3281
Q39.8438 -48.1875 33.7969 -48.1875
Q26.5156 -48.1875 22.3125 -43.5469
Q18.1094 -38.9219 18.1094 -30.9062
L18.1094 0
L9.07812 0
L9.07812 -54.6875
L18.1094 -54.6875
L18.1094 -46.1875
Q21.3438 -51.125 25.7031 -53.5625
Q30.0781 -56 35.7969 -56
Q45.2188 -56 50.0469 -50.1719
Q54.8906 -44.3438 54.8906 -33.0156" id="BitstreamVeraSans-Roman-6e"/>
     <path d="
M9.42188 -75.9844
L18.4062 -75.9844
L18.4062 0
L9.42188 0
z
" id="BitstreamVeraSans-Roman-6c"/>
     <path d="
M11.7188 -12.4062
L22.0156 -12.4062
L22.0156 0
L11.7188 0
z

M11.7188 -51.7031
L22.0156 -51.7031
L22.0156 -39.3125
L11.7188 -39.3125
z
" id="BitstreamVeraSans-Roman-3a"/>
     <path d="
M53.5156 -70.5156
L53.5156 -60.8906
Q47.9062 -63.5781 42.9219 -64.8906
Q37.9375 -66.2188 33.2969 -66.2188
Q25.25 -66.2188 20.875 -63.0938
Q16.5 -59.9688 16.5 -54.2031
Q16.5 -49.3594 19.4062 -46.8906
Q22.3125 -44.4375 30.4219 -42.9219
L36.375 -41.7031
Q47.4062 -39.5938 52.6562 -34.2969
Q57.9062 -29 57.9062 -20.125
Q57.9062 -9.51562 50.7969 -4.04688
Q43.7031 1.42188 29.9844 1.42188
Q24.8125 1.42188 18.9688 0.25
Q13.1406 -0.921875 6.89062 -3.21875
L6.89062 -13.375
Q12.8906 -10.0156 18.6562 -8.29688
Q24.4219 -6.59375 29.9844 -6.59375
Q38.4219 -6.59375 43.0156 -9.90625
Q47.6094 -13.2344 47.6094 -19.3906
Q47.6094 -24.75 44.3125 -27.7812
Q41.0156 -30.8125 33.5 -32.3281
L27.4844 -33.5
Q16.4531 -35.6875 11.5156 -40.375
Q6.59375 -45.0625 6.59375 -53.4219
Q6.59375 -63.0938 13.4062 -68.6562
Q20.2188 -74.2188 32.1719 -74.2188
Q37.3125 -74.2188 42.625 -73.2812
Q47.9531 -72.3594 53.5156 -70.5156" id="BitstreamVeraSans-Roman-53"/>
     <path d="
M64.4062 -67.2812
L64.4062 -56.8906
Q59.4219 -61.5312 53.7812 -63.8125
Q48.1406 -66.1094 41.7969 -66.1094
Q29.2969 -66.1094 22.6562 -58.4688
Q16.0156 -50.8281 16.0156 -36.375
Q16.0156 -21.9688 22.6562 -14.3281
Q29.2969 -6.6875 41.7969 -6.6875
Q48.1406 -6.6875 53.7812 -8.98438
Q59.4219 -11.2812 64.4062 -15.9219
L64.4062 -5.60938
Q59.2344 -2.09375 53.4375 -0.328125
Q47.6562 1.42188 41.2188 1.42188
Q24.6562 1.42188 15.125 -8.70312
Q5.60938 -18.8438 5.60938 -36.375
Q5.60938 -53.9531 15.125 -64.0781
Q24.6562 -74.2188 41.2188 -74.2188
Q47.75 -74.2188 53.5312 -72.4844
Q59.3281 -70.75 64.4062 -67.2812" id="BitstreamVeraSans-Roman-43"/>
     <path d="
M45.4062 -46.3906
L45.4062 -75.9844
L54.3906 -75.9844
L54.3906 0
L45.4062 0
L45.4062 -8.20312
Q42.5781 -3.32812 38.25 -0.953125
Q33.9375 1.42188 27.875 1.42188
Q17.9688 1.42188 11.7344 -6.48438
Q5.51562 -14.4062 5.51562 -27.2969
Q5.51562 -40.1875 11.7344 -48.0938
Q17.9688 -56 27.875 -56
Q33.9375 -56 38.25 -53.625
Q42.5781 -51.2656 45.4062 -46.3906
M14.7969 -27.2969
Q14.7969 -17.3906 18.875 -11.75
Q22.9531 -6.10938 30.0781 -6.10938
Q37.2031 -6.10938 41.2969 -11.75
Q45.4062 -17.3906 45.4062 -27.2969
Q45.4062 -37.2031 41.2969 -42.8438
Q37.2031 -48.4844 30.0781 -48.4844
Q22.9531 -48.4844 18.875 -42.8438
Q14.7969 -37.2031 14.7969 -27.2969" id="BitstreamVeraSans-Roman-64"/>
     <path d="
M45.4062 -27.9844
Q45.4062 -37.75 41.375 -43.1094
Q37.3594 -48.4844 30.0781 -48.4844
Q22.8594 -48.4844 18.8281 -43.1094
Q14.7969 -37.75 14.7969 -27.9844
Q14.7969 -18.2656 18.8281 -12.8906
Q22.8594 -7.51562 30.0781 -7.51562
Q37.3594 -7.51562 41.375 -12.8906
Q45.4062 -18.2656 45.4062 -27.9844
M54.3906 -6.78125
Q54.3906 7.17188 48.1875 13.9844
Q42 20.7969 29.2031 20.7969
Q24.4688 20.7969 20.2656 20.0938
Q16.0625 19.3906 12.1094 17.9219
L12.1094 9.1875
Q16.0625 11.3281 19.9219 12.3438
Q23.7812 13.375 27.7812 13.375
Q36.625 13.375 41.0156 8.76562
Q45.4062 4.15625 45.4062 -5.17188
L45.4062 -9.625
Q42.625 -4.78125 38.2812 -2.39062
Q33.9375 0 27.875 0
Q17.8281 0 11.6719 -7.65625
Q5.51562 -15.3281 5.51562 -27.9844
Q5.51562 -40.6719 11.6719 -48.3281
Q17.8281 -56 27.875 -56
Q33.9375 -56 38.2812 -53.6094
Q42.625 -51.2188 45.4062 -46.3906
L45.4062 -54.6875
L54.3906 -54.6875
z
" id="BitstreamVeraSans-Roman-67"/>
     <path d="
M37.1094 -75.9844
L37.1094 -68.5
L28.5156 -68.5
Q23.6875 -68.5 21.7969 -66.5469
Q19.9219 -64.5938 19.9219 -59.5156
L19.9219 -54.6875
L34.7188 -54.6875
L34.7188 -47.7031
L19.9219 -47.7031
L19.9219 0
L10.8906 0
L10.8906 -47.7031
L2.29688 -47.7031
L2.29688 -54.6875
L10.8906 -54.6875
L10.8906 -58.5
Q10.8906 -67.625 15.1406 -71.7969
Q19.3906 -75.9844 28.6094 -75.9844
z
" id="BitstreamVeraSans-Roman-66"/>
     <path d="
M44.2812 -53.0781
L44.2812 -44.5781
Q40.4844 -46.5312 36.375 -47.5
Q32.2812 -48.4844 27.875 -48.4844
Q21.1875 -48.4844 17.8438 -46.4375
Q14.5 -44.3906 14.5 -40.2812
Q14.5 -37.1562 16.8906 -35.375
Q19.2812 -33.5938 26.5156 -31.9844
L29.5938 -31.2969
Q39.1562 -29.25 43.1875 -25.5156
Q47.2188 -21.7812 47.2188 -15.0938
Q47.2188 -7.46875 41.1875 -3.01562
Q35.1562 1.42188 24.6094 1.42188
Q20.2188 1.42188 15.4531 0.5625
Q10.6875 -0.296875 5.42188 -2
L5.42188 -11.2812
Q10.4062 -8.6875 15.2344 -7.39062
Q20.0625 -6.10938 24.8125 -6.10938
Q31.1562 -6.10938 34.5625 -8.28125
Q37.9844 -10.4531 37.9844 -14.4062
Q37.9844 -18.0625 35.5156 -20.0156
Q33.0625 -21.9688 24.7031 -23.7812
L21.5781 -24.5156
Q13.2344 -26.2656 9.51562 -29.9062
Q5.8125 -33.5469 5.8125 -39.8906
Q5.8125 -47.6094 11.2812 -51.7969
Q16.75 -56 26.8125 -56
Q31.7812 -56 36.1719 -55.2656
Q40.5781 -54.5469 44.2812 -53.0781" id="BitstreamVeraSans-Roman-73"/>
     <path d="
M48.6875 -27.2969
Q48.6875 -37.2031 44.6094 -42.8438
Q40.5312 -48.4844 33.4062 -48.4844
Q26.2656 -48.4844 22.1875 -42.8438
Q18.1094 -37.2031 18.1094 -27.2969
Q18.1094 -17.3906 22.1875 -11.75
Q26.2656 -6.10938 33.4062 -6.10938
Q40.5312 -6.10938 44.6094 -11.75
Q48.6875 -17.3906 48.6875 -27.2969
M18.1094 -46.3906
Q20.9531 -51.2656 25.2656 -53.625
Q29.5938 -56 35.5938 -56
Q45.5625 -56 51.7812 -48.0938
Q58.0156 -40.1875 58.0156 -27.2969
Q58.0156 -14.4062 51.7812 -6.48438
Q45.5625 1.42188 35.5938 1.42188
Q29.5938 1.42188 25.2656 -0.953125
Q20.9531 -3.32812 18.1094 -8.20312
L18.1094 0
L9.07812 0
L9.07812 -75.9844
L18.1094 -75.9844
z
" id="BitstreamVeraSans-Roman-62"/>
    </defs>
    <g transform="translate(262.7415 38.2)scale(0.144)">
     <use xlink:href="#BitstreamVeraSans-Roman-53"/>
     <use x="63.4765625" xlink:href="#BitstreamVeraSans-Roman-65"/>
     <use x="125.0" xlink:href="#BitstreamVeraSans-Roman-6c"/>
     <use x="152.783203125" xlink:href="#BitstreamVeraSans-Roman-66"/>
     <use x="182.48828125" xlink:href="#BitstreamVeraSans-Roman-2d"/>
     <use x="218.572265625" xlink:href="#BitstreamVeraSans-Roman-43"/>
     <use x="288.396484375" xlink:href="#BitstreamVeraSans-Roman-65"/>
     <use x="349.919921875" xlink:href="#BitstreamVeraSans-Roman-6e"/>
     <use x="413.298828125" xlink:href="#BitstreamVeraSans-Roman-74"/>
     <use x="452.5078125" xlink:href="#BitstreamVeraSans-Roman-65"/>
     <use x="514.03125" xlink:href="#BitstreamVeraSans-Roman-72"/>
     <use x="552.89453125" xlink:href="#BitstreamVeraSans-Roman-65"/>
     <use x="614.41796875" xlink:href="#BitstreamVeraSans-Roman-64"/>
     <use x="677.89453125" xlink:href="#BitstreamVeraSans-Roman-6e"/>
     <use x="741.2734375" xlink:href="#BitstreamVeraSans-Roman-65"/>
     <use x="802.796875" xlink:href="#BitstreamVeraSans-Roman-73"/>
     <use x="854.896484375" xlink:href="#BitstreamVeraSans-Roman-73"/>
     <use x="906.99609375" xlink:href="#BitstreamVeraSans-Roman-20"/>
     <use x="938.783203125" xlink:href="#BitstreamVeraSans-Roman-6f"/>
     <use x="999.96484375" xlink:href="#BitstreamVeraSans-Roman-66"/>
     <use x="1035.16992188" xlink:href="#BitstreamVeraSans-Roman-20"/>
     <use x="1066.95703125" xlink:href="#BitstreamVeraSans-Roman-4e"/>
     <use x="1141.76171875" xlink:href="#BitstreamVeraSans-Roman-75"/>
     <use x="1205.140625" xlink:href="#BitstreamVeraSans-Roman-6d"/>
     <use x="1302.55273438" xlink:href="#BitstreamVeraSans-Roman-62"/>
     <use x="1366.02929688" xlink:href="#BitstreamVeraSans-Roman-65"/>
     <use x="1427.55273438" xlink:href="#BitstreamVeraSans-Roman-72"/>
     <use x="1468.66601562" xlink:href="#BitstreamVeraSans-Roman-20"/>
     <use x="1500.453125" xlink:href="#BitstreamVeraSans-Roman-31"/>
     <use x="1564.07617188" xlink:href="#BitstreamVeraSans-Roman-20"/>
     <use x="1595.86328125" xlink:href="#BitstreamVeraSans-Roman-53"/>
     <use x="1659.33984375" xlink:href="#BitstreamVeraSans-Roman-6f"/>
     <use x="1720.52148438" xlink:href="#BitstreamVeraSans-Roman-6e"/>
     <use x="1783.90039062" xlink:href="#BitstreamVeraSans-Roman-67"/>
     <use x="1847.37695312" xlink:href="#BitstreamVeraSans-Roman-73"/>
     <use x="1899.4765625" xlink:href="#BitstreamVeraSans-Roman-3a"/>
     <use x="1933.16796875" xlink:href="#BitstreamVeraSans-Roman-20"/>
     <use x="1964.95507812" xlink:href="#BitstreamVeraSans-Roman-31"/>
     <use x="2028.578125" xlink:href="#BitstreamVeraSans-Roman-39"/>
     <use x="2092.20117188" xlink:href="#BitstreamVeraSans-Roman-35"/>
     <use x="2155.82421875" xlink:href="#BitstreamVeraSans-Roman-38"/>
     <use x="2219.44726562" xlink:href="#BitstreamVeraSans-Roman-2d"/>
     <use x="2255.53125" xlink:href="#BitstreamVeraSans-Roman-32"/>
     <use x="2319.15429688" xlink:href="#BitstreamVeraSans-Roman-30"/>
     <use x="2382.77734375" xlink:href="#BitstreamVeraSans-Roman-31"/>
     <use x="2446.40039062" xlink:href="#BitstreamVeraSans-Roman-31"/>
    </g>
   </g>
  </g>
  <g id="text_23">
   <!-- Spearman's correlation = 0.088 -->
   <defs>
    <path d="
M10.5938 -45.4062
L73.1875 -45.4062
L73.1875 -37.2031
L10.5938 -37.2031
z

M10.5938 -25.4844
L73.1875 -25.4844
L73.1875 -17.1875
L10.5938 -17.1875
z
" id="BitstreamVeraSans-Roman-3d"/>
    <path d="
M48.7812 -52.5938
L48.7812 -44.1875
Q44.9688 -46.2969 41.1406 -47.3438
Q37.3125 -48.3906 33.4062 -48.3906
Q24.6562 -48.3906 19.8125 -42.8438
Q14.9844 -37.3125 14.9844 -27.2969
Q14.9844 -17.2812 19.8125 -11.7344
Q24.6562 -6.20312 33.4062 -6.20312
Q37.3125 -6.20312 41.1406 -7.25
Q44.9688 -8.29688 48.7812 -10.4062
L48.7812 -2.09375
Q45.0156 -0.34375 40.9844 0.53125
Q36.9688 1.42188 32.4219 1.42188
Q20.0625 1.42188 12.7812 -6.34375
Q5.51562 -14.1094 5.51562 -27.2969
Q5.51562 -40.6719 12.8594 -48.3281
Q20.2188 -56 33.0156 -56
Q37.1562 -56 41.1094 -55.1406
Q45.0625 -54.2969 48.7812 -52.5938" id="BitstreamVeraSans-Roman-63"/>
    <path d="
M17.9219 -72.9062
L17.9219 -45.7969
L9.625 -45.7969
L9.625 -72.9062
z
" id="BitstreamVeraSans-Roman-27"/>
    <path d="
M18.1094 -8.20312
L18.1094 20.7969
L9.07812 20.7969
L9.07812 -54.6875
L18.1094 -54.6875
L18.1094 -46.3906
Q20.9531 -51.2656 25.2656 -53.625
Q29.5938 -56 35.5938 -56
Q45.5625 -56 51.7812 -48.0938
Q58.0156 -40.1875 58.0156 -27.2969
Q58.0156 -14.4062 51.7812 -6.48438
Q45.5625 1.42188 35.5938 1.42188
Q29.5938 1.42188 25.2656 -0.953125
Q20.9531 -3.32812 18.1094 -8.20312
M48.6875 -27.2969
Q48.6875 -37.2031 44.6094 -42.8438
Q40.5312 -48.4844 33.4062 -48.4844
Q26.2656 -48.4844 22.1875 -42.8438
Q18.1094 -37.2031 18.1094 -27.2969
Q18.1094 -17.3906 22.1875 -11.75
Q26.2656 -6.10938 33.4062 -6.10938
Q40.5312 -6.10938 44.6094 -11.75
Q48.6875 -17.3906 48.6875 -27.2969" id="BitstreamVeraSans-Roman-70"/>
   </defs>
   <g transform="translate(345.6 427.68)scale(0.12)">
    <use xlink:href="#BitstreamVeraSans-Roman-53"/>
    <use x="63.4765625" xlink:href="#BitstreamVeraSans-Roman-70"/>
    <use x="126.953125" xlink:href="#BitstreamVeraSans-Roman-65"/>
    <use x="188.4765625" xlink:href="#BitstreamVeraSans-Roman-61"/>
    <use x="249.755859375" xlink:href="#BitstreamVeraSans-Roman-72"/>
    <use x="289.119140625" xlink:href="#BitstreamVeraSans-Roman-6d"/>
    <use x="386.53125" xlink:href="#BitstreamVeraSans-Roman-61"/>
    <use x="447.810546875" xlink:href="#BitstreamVeraSans-Roman-6e"/>
    <use x="511.189453125" xlink:href="#BitstreamVeraSans-Roman-27"/>
    <use x="538.6796875" xlink:href="#BitstreamVeraSans-Roman-73"/>
    <use x="590.779296875" xlink:href="#BitstreamVeraSans-Roman-20"/>
    <use x="622.56640625" xlink:href="#BitstreamVeraSans-Roman-63"/>
    <use x="677.546875" xlink:href="#BitstreamVeraSans-Roman-6f"/>
    <use x="738.728515625" xlink:href="#BitstreamVeraSans-Roman-72"/>
    <use x="778.091796875" xlink:href="#BitstreamVeraSans-Roman-72"/>
    <use x="816.955078125" xlink:href="#BitstreamVeraSans-Roman-65"/>
    <use x="878.478515625" xlink:href="#BitstreamVeraSans-Roman-6c"/>
    <use x="906.26171875" xlink:href="#BitstreamVeraSans-Roman-61"/>
    <use x="967.541015625" xlink:href="#BitstreamVeraSans-Roman-74"/>
    <use x="1006.75" xlink:href="#BitstreamVeraSans-Roman-69"/>
    <use x="1034.53320312" xlink:href="#BitstreamVeraSans-Roman-6f"/>
    <use x="1095.71484375" xlink:href="#BitstreamVeraSans-Roman-6e"/>
    <use x="1159.09375" xlink:href="#BitstreamVeraSans-Roman-20"/>
    <use x="1190.88085938" xlink:href="#BitstreamVeraSans-Roman-3d"/>
    <use x="1274.66992188" xlink:href="#BitstreamVeraSans-Roman-20"/>
    <use x="1306.45703125" xlink:href="#BitstreamVeraSans-Roman-30"/>
    <use x="1370.08007812" xlink:href="#BitstreamVeraSans-Roman-2e"/>
    <use x="1401.8671875" xlink:href="#BitstreamVeraSans-Roman-30"/>
    <use x="1465.49023438" xlink:href="#BitstreamVeraSans-Roman-38"/>
    <use x="1529.11328125" xlink:href="#BitstreamVeraSans-Roman-38"/>
   </g>
  </g>
 </g>
</svg>
